<svg xmlns="http://www.w3.org/2000/svg" viewBox="0 0 46.39 46.39"><defs><style>.cls-1{fill:#fff;}</style></defs><g id="Capa_2" data-name="Capa 2"><g id="Capa_1-2" data-name="Capa 1"><path class="cls-1" d="M23.19,46.39a23.2,23.2,0,1,1,23.2-23.2A23.22,23.22,0,0,1,23.19,46.39ZM23.19,2a21.2,21.2,0,1,0,21.2,21.19A21.22,21.22,0,0,0,23.19,2Z"/><path class="cls-1" d="M8.26,40.08l-.9-1.79a40.88,40.88,0,0,1,6.9-2.85A9.33,9.33,0,0,0,18,33.36V29.64a7.5,7.5,0,0,1-2.7-4.75A4.08,4.08,0,0,1,13.83,22,2.82,2.82,0,0,1,14.89,20l-.18-8.11c0-.29.41-5.28,8.48-5.28s8.47,5,8.48,5.2L31.49,20A2.75,2.75,0,0,1,32.55,22a4.08,4.08,0,0,1-1.46,2.86,7.5,7.5,0,0,1-2.7,4.75v3.72a9.33,9.33,0,0,0,3.74,2.08A41.61,41.61,0,0,1,39,38.29l-.91,1.79a39.58,39.58,0,0,0-6.38-2.68C30,37.06,26.39,35,26.39,33.61v-5l.41-.3s2.37-1.76,2.3-3.89l0-.53.42-.31c.43-.33,1.07-1,1.05-1.54,0-.26-.22-.53-.62-.8l-.46-.3.21-9.16s-.38-3.24-6.49-3.24-6.47,3.2-6.48,3.33L16.92,21l-.46.3c-.41.27-.62.54-.63.8,0,.5.63,1.21,1.06,1.54l.41.31v.53c-.08,2.13,2.27,3.87,2.3,3.89l.41.3v5c0,1.43-3.64,3.45-5.35,3.79A40.07,40.07,0,0,0,8.26,40.08Z"/></g></g></svg>